<svg width="233" height="54" viewBox="0 0 233 54" fill="none" xmlns="http://www.w3.org/2000/svg">
<path d="M39.64 29.92C39.64 27.84 40.0267 26.0267 40.8 24.48C41.5867 22.92 42.6733 21.7133 44.06 20.86C45.46 19.9933 47.0867 19.56 48.94 19.56C50.6067 19.56 52.0933 19.8867 53.4 20.54C54.72 21.18 55.7733 22.0867 56.56 23.26C57.36 24.4333 57.8133 25.8067 57.92 27.38H55.12C55.04 25.74 54.44 24.4533 53.32 23.52C52.2 22.5733 50.74 22.1 48.94 22.1C46.8733 22.1 45.2733 22.7867 44.14 24.16C43.0067 25.52 42.44 27.44 42.44 29.92C42.44 32.4267 43.0067 34.3733 44.14 35.76C45.2867 37.1333 46.8867 37.82 48.94 37.82C50.7267 37.82 52.18 37.3867 53.3 36.52C54.42 35.64 55.0267 34.4267 55.12 32.88H57.92C57.7867 34.4133 57.32 35.74 56.52 36.86C55.7333 37.98 54.6867 38.8467 53.38 39.46C52.0733 40.06 50.5933 40.36 48.94 40.36C47.0867 40.36 45.46 39.9267 44.06 39.06C42.6733 38.1933 41.5867 36.98 40.8 35.42C40.0267 33.8467 39.64 32.0133 39.64 29.92ZM61.0853 29.92C61.0853 27.84 61.472 26.0267 62.2453 24.48C63.032 22.92 64.1253 21.7133 65.5253 20.86C66.9253 19.9933 68.5586 19.56 70.4253 19.56C72.2653 19.56 73.8786 19.9933 75.2653 20.86C76.6653 21.7133 77.752 22.92 78.5253 24.48C79.2986 26.0267 79.6853 27.84 79.6853 29.92C79.6853 32.0133 79.2986 33.8467 78.5253 35.42C77.752 36.98 76.6653 38.1933 75.2653 39.06C73.8786 39.9267 72.2653 40.36 70.4253 40.36C68.5586 40.36 66.9253 39.9267 65.5253 39.06C64.1253 38.1933 63.032 36.98 62.2453 35.42C61.472 33.8467 61.0853 32.0133 61.0853 29.92ZM76.8853 29.92C76.8853 27.44 76.3186 25.52 75.1853 24.16C74.052 22.7867 72.4653 22.1 70.4253 22.1C68.3586 22.1 66.752 22.7867 65.6053 24.16C64.4586 25.52 63.8853 27.44 63.8853 29.92C63.8853 32.4267 64.4586 34.3733 65.6053 35.76C66.752 37.1333 68.3586 37.82 70.4253 37.82C72.4653 37.82 74.052 37.1333 75.1853 35.76C76.3186 34.3733 76.8853 32.4267 76.8853 29.92ZM101.54 20V40.42C101.54 41.8867 101.174 43.1733 100.44 44.28C99.7203 45.3867 98.7003 46.2467 97.3803 46.86C96.0736 47.4733 94.5403 47.78 92.7803 47.78C90.1936 47.78 88.0536 47.1867 86.3603 46C84.6803 44.8267 83.6936 43.2733 83.4003 41.34H86.2403C86.4136 42.58 87.067 43.5467 88.2003 44.24C89.3336 44.9467 90.847 45.3 92.7403 45.3C94.6603 45.3 96.1603 44.86 97.2403 43.98C98.3203 43.1 98.8603 41.8533 98.8603 40.24V35.52C98.1403 36.8267 97.1803 37.8467 95.9803 38.58C94.7803 39.3133 93.407 39.68 91.8603 39.68C90.1003 39.68 88.5603 39.26 87.2403 38.42C85.9203 37.58 84.8936 36.4067 84.1603 34.9C83.427 33.38 83.0603 31.6133 83.0603 29.6C83.0603 27.5867 83.427 25.8333 84.1603 24.34C84.8936 22.8333 85.9203 21.66 87.2403 20.82C88.5603 19.98 90.0936 19.56 91.8403 19.56C93.4003 19.56 94.7803 19.9267 95.9803 20.66C97.1803 21.38 98.1403 22.3867 98.8603 23.68V20H101.54ZM85.8603 29.6C85.8603 31.9733 86.427 33.8267 87.5603 35.16C88.707 36.48 90.307 37.14 92.3603 37.14C94.427 37.14 96.027 36.48 97.1603 35.16C98.2936 33.8267 98.8603 31.9733 98.8603 29.6C98.8603 27.2267 98.2936 25.3867 97.1603 24.08C96.027 22.76 94.427 22.1 92.3603 22.1C90.307 22.1 88.707 22.76 87.5603 24.08C86.427 25.3867 85.8603 27.2267 85.8603 29.6ZM105.804 20H108.544V23.08C109.264 21.9467 110.211 21.08 111.384 20.48C112.571 19.8667 113.771 19.56 114.984 19.56C117.144 19.56 118.924 20.22 120.324 21.54C121.724 22.8467 122.424 24.7467 122.424 27.24V40H119.724V27.82C119.724 25.8333 119.224 24.3933 118.224 23.5C117.237 22.6067 115.911 22.16 114.244 22.16C112.617 22.16 111.257 22.6667 110.164 23.68C109.084 24.68 108.544 25.9667 108.544 27.54V40H105.804V20ZM126.403 13.88H129.643V17.2H126.403V13.88ZM126.643 20H129.383V40H126.643V20ZM133.337 36.54H136.617V40H133.337V36.54ZM149.128 31.4L145.968 31.02C143.968 30.78 142.442 30.22 141.388 29.34C140.348 28.4467 139.828 27.1467 139.828 25.44C139.828 23.64 140.502 22.22 141.848 21.18C143.208 20.1267 145.062 19.6 147.408 19.6C149.728 19.6 151.595 20.1733 153.008 21.32C154.435 22.4667 155.255 24.0333 155.468 26.02H152.748C152.522 24.6467 151.975 23.6267 151.108 22.96C150.242 22.2933 149.002 21.96 147.388 21.96C145.935 21.96 144.762 22.2667 143.868 22.88C142.975 23.4933 142.528 24.3 142.528 25.3C142.528 26.2733 142.842 26.9933 143.468 27.46C144.108 27.9133 145.062 28.22 146.328 28.38L149.528 28.76C153.715 29.2667 155.808 31.2667 155.808 34.76C155.808 36.4667 155.102 37.8267 153.688 38.84C152.288 39.8533 150.435 40.36 148.128 40.36C145.528 40.36 143.455 39.7733 141.908 38.6C140.375 37.4133 139.502 35.86 139.288 33.94H142.128C142.582 36.6467 144.588 38 148.148 38C149.628 38 150.822 37.7133 151.728 37.14C152.648 36.5533 153.108 35.7733 153.108 34.8C153.108 32.8667 151.782 31.7333 149.128 31.4ZM167.811 37.52V40H165.651C164.864 40 164.111 39.84 163.391 39.52C162.684 39.2 162.104 38.6733 161.651 37.94C161.211 37.2067 160.991 36.22 160.991 34.98V22.42H157.671V20H160.991V14.96H163.691V20H167.811V22.42H163.691V34.64C163.691 35.8 163.891 36.5733 164.291 36.96C164.704 37.3333 165.224 37.52 165.851 37.52H167.811ZM173.602 31.9C173.602 33.9933 174.082 35.5067 175.042 36.44C176.002 37.3733 177.282 37.84 178.882 37.84C179.936 37.84 180.882 37.6 181.722 37.12C182.576 36.6267 183.249 35.9467 183.742 35.08C184.236 34.2133 184.482 33.2267 184.482 32.12V20H187.162V40H184.482V36.76C183.762 37.9333 182.822 38.84 181.662 39.48C180.502 40.12 179.329 40.44 178.142 40.44C176.036 40.44 174.296 39.7533 172.922 38.38C171.549 36.9933 170.862 35.0133 170.862 32.44V20H173.602V31.9ZM209.509 12V40H206.829V36.08C206.109 37.4267 205.149 38.48 203.949 39.24C202.762 39.9867 201.396 40.36 199.849 40.36C198.089 40.36 196.542 39.9267 195.209 39.06C193.889 38.1933 192.862 36.98 192.129 35.42C191.396 33.8467 191.029 32.0133 191.029 29.92C191.029 27.84 191.396 26.0267 192.129 24.48C192.862 22.92 193.889 21.7133 195.209 20.86C196.542 19.9933 198.089 19.56 199.849 19.56C201.396 19.56 202.762 19.9333 203.949 20.68C205.149 21.4267 206.109 22.4667 206.829 23.8V12H209.509ZM193.829 29.92C193.829 32.4267 194.396 34.3733 195.529 35.76C196.676 37.1333 198.276 37.82 200.329 37.82C202.396 37.82 203.996 37.1333 205.129 35.76C206.262 34.3733 206.829 32.4267 206.829 29.92C206.829 27.44 206.262 25.52 205.129 24.16C203.996 22.7867 202.396 22.1 200.329 22.1C198.276 22.1 196.676 22.7867 195.529 24.16C194.396 25.52 193.829 27.44 193.829 29.92ZM214.453 43.66H215.473C216.686 43.66 217.626 43.46 218.293 43.06C218.973 42.6733 219.519 41.9933 219.933 41.02L220.393 39.84L212.413 20H215.393L221.973 36.8L228.393 20H231.353L222.953 41.28C222.233 43.12 221.306 44.42 220.173 45.18C219.053 45.94 217.713 46.32 216.153 46.32H214.453V43.66Z" fill="white"/>
<path d="M22 38.905C22.6898 38.6332 23.3583 38.3102 24 37.9387V43C24 43.2652 23.8946 43.5195 23.7071 43.7071C23.5196 43.8946 23.2652 44 23 44C22.7348 44 22.4804 43.8946 22.2929 43.7071C22.1053 43.5195 22 43.2652 22 43V38.905ZM23.47 27.8512L16.47 24.1175C16.2364 23.9982 15.9654 23.9754 15.7152 24.054C15.465 24.1327 15.2558 24.3065 15.1325 24.5379C15.0092 24.7694 14.9818 25.04 15.0562 25.2915C15.1305 25.543 15.3007 25.7552 15.53 25.8825L21.375 29L23.5 27.8675L23.47 27.8512ZM31.47 24.1175L16.47 16.1175C16.3253 16.0404 16.1639 16.0001 16 16.0001C15.8361 16.0001 15.6747 16.0404 15.53 16.1175L0.529993 24.1175C0.369998 24.2027 0.236194 24.3299 0.142893 24.4853C0.0495918 24.6408 0.000305176 24.8187 0.000305176 25C0.000305176 25.1813 0.0495918 25.3591 0.142893 25.5146C0.236194 25.67 0.369998 25.7972 0.529993 25.8825L3.99999 27.7337V33.7862C3.99895 34.2774 4.17973 34.7516 4.50749 35.1175C6.14499 36.9412 9.81374 40 16 40C18.0512 40.0169 20.087 39.6454 22 38.905V29.3337L21.375 29L16 31.8662L5.47874 26.25L3.12499 25L16 18.1337L28.875 25L26.5275 26.25H26.52L23.5 27.8675C23.652 27.9552 23.7783 28.0815 23.8661 28.2336C23.9538 28.3856 24 28.5581 24 28.7337V37.9387C25.304 37.1859 26.4824 36.234 27.4925 35.1175C27.8203 34.7516 28.001 34.2774 28 33.7862V27.7337L31.47 25.8825C31.63 25.7972 31.7638 25.67 31.8571 25.5146C31.9504 25.3591 31.9997 25.1813 31.9997 25C31.9997 24.8187 31.9504 24.6408 31.8571 24.4853C31.7638 24.3299 31.63 24.2027 31.47 24.1175Z" fill="white"/>
</svg>
