<svg width="33" height="33" viewBox="0 0 33 33" fill="none" xmlns="http://www.w3.org/2000/svg">
<g clip-path="url(#clip0_211_280)">
<path d="M22.661 26.6833C23.3715 26.4033 24.0601 26.0707 24.7211 25.688V30.9013C24.7211 31.1745 24.6126 31.4365 24.4194 31.6297C24.2262 31.8228 23.9642 31.9314 23.691 31.9314C23.4178 31.9314 23.1558 31.8228 22.9627 31.6297C22.7695 31.4365 22.661 31.1745 22.661 30.9013V26.6833ZM24.1751 15.2975L16.9648 11.4515C16.7243 11.3287 16.4451 11.3052 16.1874 11.3862C15.9297 11.4672 15.7141 11.6462 15.5872 11.8847C15.4602 12.1231 15.4319 12.4018 15.5085 12.6609C15.5851 12.9199 15.7604 13.1385 15.9966 13.2696L22.0172 16.4807L24.2061 15.3142L24.1751 15.2975ZM32.4155 11.4515L16.9648 3.21119C16.8158 3.13184 16.6496 3.09033 16.4807 3.09033C16.3119 3.09033 16.1456 3.13184 15.9966 3.21119L0.545967 11.4515C0.381166 11.5394 0.243341 11.6703 0.147237 11.8305C0.0511336 11.9906 0.000366211 12.1738 0.000366211 12.3605C0.000366211 12.5473 0.0511336 12.7305 0.147237 12.8906C0.243341 13.0508 0.381166 13.1817 0.545967 13.2696L4.12022 15.1764V21.4108C4.11915 21.9167 4.30535 22.4052 4.64296 22.782C6.32966 24.6605 10.1086 27.8112 16.4807 27.8112C18.5935 27.8287 20.6906 27.446 22.661 26.6833V16.8245L22.0172 16.4807L16.4807 19.4331L5.64339 13.6481L3.21893 12.3605L16.4807 5.28801L29.7425 12.3605L27.3245 13.6481H27.3168L24.2061 15.3142C24.3627 15.4046 24.4927 15.5347 24.5831 15.6913C24.6735 15.8479 24.7211 16.0256 24.7211 16.2065V25.688C26.0643 24.9126 27.278 23.9321 28.3185 22.782C28.6561 22.4052 28.8423 21.9167 28.8412 21.4108V15.1764L32.4155 13.2696C32.5803 13.1817 32.7181 13.0508 32.8142 12.8906C32.9103 12.7305 32.9611 12.5473 32.9611 12.3605C32.9611 12.1738 32.9103 11.9906 32.8142 11.8305C32.7181 11.6703 32.5803 11.5394 32.4155 11.4515Z" fill="white"/>
</g>
<defs>
<clipPath id="clip0_211_280">
<rect width="32.9614" height="32.9614" fill="white"/>
</clipPath>
</defs>
</svg>
